<svg width="48" height="58" viewBox="0 0 48 58" fill="none" xmlns="http://www.w3.org/2000/svg">
<path fill-rule="evenodd" clip-rule="evenodd" d="M19.132 43.4065C18.8836 43.5013 18.6349 43.6084 18.3866 43.7277L21.976 33.7686L21.9786 33.7725C22.9394 35.2214 24.2213 36.1409 25.7137 36.4561C27.2064 36.7714 28.8684 36.4734 30.5589 35.5849C32.2481 34.697 33.9144 33.2463 35.4162 31.3561L32.6758 29.1789C31.3993 30.7855 30.0911 31.8767 28.9304 32.4868C27.7789 33.092 26.9505 33.1402 26.437 33.0317C25.9658 32.9322 25.4227 32.6332 24.8955 31.8381C24.4318 31.139 24.0214 30.1014 23.7978 28.7139L28.4164 15.8993C32.1351 15.9225 35.826 15.7356 39.1965 15.3532C42.6241 14.9643 45.6228 14.3842 47.9473 13.6605L47.0554 10.7961C44.9687 11.4458 42.1689 11.9967 38.8583 12.3723C35.9351 12.704 32.7438 12.8844 29.4973 12.9001L33.7312 1.15282L30.5326 0L25.9013 12.8499C23.0617 12.7563 20.3239 12.5363 17.8324 12.2024C14.6394 11.7746 12.0341 11.1839 10.1852 10.5207L9.17225 13.3445C11.2908 14.1045 14.1219 14.732 17.4339 15.1758C19.7464 15.4857 22.2475 15.6999 24.8339 15.8114L21.6272 24.7087C21.4969 24.5653 21.3618 24.4283 21.222 24.2981C19.9238 23.0886 18.282 22.5139 16.5042 22.6468C14.727 22.7796 12.8931 23.6135 11.2345 25.0444C9.57644 26.4748 8.16859 28.437 7.18902 30.6829L10.3971 32.0822C11.1921 30.2595 12.3047 28.7436 13.5207 27.6946C14.7427 26.6404 15.8915 26.2023 16.765 26.137C17.5747 26.0765 18.2558 26.3182 18.8361 26.8589C19.3074 27.2979 19.7688 27.9953 20.0873 28.9813L13.152 48.224C12.3698 49.6038 11.408 50.7383 10.3925 51.5422C9.06771 52.5912 7.88052 52.9106 7.03954 52.8654C6.27131 52.8241 5.54227 52.4733 4.92074 51.6369C4.25491 50.7409 3.73481 49.2862 3.70105 47.3503L0.201578 47.4113C0.245004 49.9013 0.914702 52.114 2.11148 53.7245C3.30922 55.3363 4.97112 56.2593 6.85172 56.3604C8.73238 56.4614 10.735 55.7353 12.5652 54.2863C13.9641 53.1786 15.2052 51.6938 16.1858 49.9693C17.6598 48.2107 19.1448 47.1476 20.3793 46.6767C21.6084 46.2079 22.4056 46.3711 22.9373 46.688C23.5466 47.051 24.328 47.9319 24.8222 49.7341C25.3135 51.5257 25.4131 53.8883 24.9658 56.5522L28.4175 57.1317C28.9287 54.0869 28.8523 51.1957 28.1976 48.8084C27.5424 46.4191 26.3367 44.6393 24.7289 43.6813C23.1221 42.7239 21.1786 42.6259 19.132 43.4065ZM21.3658 6.64415C22.0189 7.01401 22.2001 7.374 22.2349 7.51104L24.1732 7.01808C23.9656 6.20163 23.3233 5.45424 22.3512 4.9038C21.381 4.35439 20.1436 4.0361 18.8484 4.00289C17.5532 3.96968 16.2799 4.22357 15.244 4.72154C14.2067 5.22014 13.4724 5.93205 13.163 6.73574L15.0294 7.45437C15.1024 7.26478 15.3783 6.87603 16.1104 6.52411C16.8259 6.18017 17.7785 5.97611 18.7971 6.00223C19.8175 6.0284 20.7239 6.28069 21.3658 6.64415ZM44.2349 7.51104C44.2001 7.374 44.0189 7.01401 43.3658 6.64415C42.7239 6.28069 41.8175 6.0284 40.7971 6.00223C39.7785 5.97611 38.8259 6.18017 38.1104 6.52411C37.3783 6.87603 37.1024 7.26478 37.0294 7.45437L35.163 6.73574C35.4724 5.93205 36.2067 5.22014 37.244 4.72154C38.2799 4.22357 39.5532 3.96968 40.8484 4.00289C42.1436 4.0361 43.381 4.35439 44.3512 4.9038C45.3233 5.45424 45.9656 6.20163 46.1732 7.01808L44.2349 7.51104Z" fill="#D0D0D0"/>
</svg>
