<svg width="56" height="78" viewBox="0 0 56 78" fill="none" xmlns="http://www.w3.org/2000/svg">
<path d="M18.4094 47.6151C17.4484 49.8184 16.0538 51.6673 14.4789 52.9142C12.9014 54.1632 11.3065 54.686 9.94569 54.6129C8.62127 54.5417 7.42581 53.9048 6.51617 52.6807C5.58487 51.4274 4.98997 49.5938 4.95137 47.3808" stroke="#D0D0D0" stroke-width="3.5"/>
<path d="M17.5799 49.168C19.2652 47.0675 21.0831 45.6796 22.7557 45.0416C24.3935 44.4169 25.7639 44.5475 26.8332 45.1846C27.9417 45.8452 28.9352 47.1755 29.51 49.2713C30.083 51.3607 30.1709 53.9876 29.6917 56.8419" stroke="#D0D0D0" stroke-width="3.5"/>
<path d="M11.7931 31.3825C12.6803 29.3483 13.9406 27.6092 15.3776 26.3695C16.8179 25.127 18.3092 24.491 19.6346 24.3919C20.9284 24.2952 22.0898 24.7034 23.029 25.5785C23.9914 26.4751 24.7445 27.8906 25.0746 29.748" stroke="#D0D0D0" stroke-width="3.5"/>
<path d="M37.046 30.2675C35.6568 32.0159 34.1696 33.2868 32.7447 34.0358C31.3237 34.7827 30.0784 34.9558 29.0753 34.7439C28.0935 34.5365 27.1811 33.9273 26.437 32.8053C25.6779 31.6607 25.1322 30.0285 24.9427 27.9809" stroke="#D0D0D0" stroke-width="3.5"/>
<line x1="35.1319" y1="0.576409" x2="17.5005" y2="49.4962" stroke="#D0D0D0" stroke-width="3.4"/>
<path d="M17.0962 7.09505C17.2874 6.59841 17.7925 6.04808 18.6772 5.62282C19.5529 5.20187 20.6659 4.97289 21.8228 5.00256C22.9806 5.03225 24.0524 5.31754 24.8585 5.77397C25.6711 6.23413 26.0828 6.78781 26.2041 7.26456" stroke="#D0D0D0" stroke-width="2"/>
<path d="M39.0962 7.09505C39.2874 6.59841 39.7925 6.04808 40.6772 5.62282C41.5529 5.20187 42.6659 4.97289 43.8228 5.00256C44.9806 5.03225 46.0524 5.31754 46.8585 5.77397C47.6711 6.23413 48.0828 6.78781 48.2041 7.26456" stroke="#D0D0D0" stroke-width="2"/>
<path d="M50.5014 12.2283C48.2959 12.915 45.3966 13.4805 42.0274 13.8627C38.6655 14.2442 34.9674 14.4284 31.2396 14.398C27.5115 14.3676 23.8758 14.1236 20.6332 13.6891C17.3807 13.2533 14.6625 12.6442 12.6788 11.9326" stroke="#D0D0D0" stroke-width="3"/>
</svg>
